# xmcd
#
# Track frame offsets:
#	150
#	19794
#	41377
#	52946
#	69736
#	84360
#	97025
#	111050
#	126123
#	140781
#	156060
#	169499
#	184994
#	201897
#	214835
#
# Disc length: 3022 seconds
#
# Revision: 0
# Processed by: cddbd v1.5.1PL2 Copyright (c) Steve Scherf et al.
# Submitted via: dBpowerAMP V4.0
#
DISCID=d70bcc0f
DTITLE=Rivaldo and Ricardo - Voz, Violão e Buteco
DYEAR=2006
DGENRE=Country
TTITLE0=Nova York, Tarde Demais - O Que Tiver De Vir Virá
TTITLE1=Verdadeiro Amor
TTITLE2=Ta Na Cara
TTITLE3=Nada, Nada, Nada - Sonhei Com Você
TTITLE4=Chorar Pra Quê?
TTITLE5=Favo De Mel
TTITLE6=Eu Só Quero Pescar
TTITLE7=Caso Do Passado
TTITLE8=Que Amor é Esse
TTITLE9=Quem Ama Sabe
TTITLE10=Eu Quero Só Você Pra Mim
TTITLE11=Alma Transparente - Cara Ou Coroa
TTITLE12=Ponto G
TTITLE13=Olhos Nos Olhos
TTITLE14=Vencer Ou Vencer
EXTD=Riped By Dj Dalton
EXTT0=
EXTT1=
EXTT2=
EXTT3=
EXTT4=
EXTT5=
EXTT6=
EXTT7=
EXTT8=
EXTT9=
EXTT10=
EXTT11=
EXTT12=
EXTT13=
EXTT14=
PLAYORDER=
